<svg xmlns="http://www.w3.org/2000/svg" width="1200" height="760" viewBox="0 0 1200 760" role="img"><title>Keep the whole picture in view.</title><desc>Illustrative workflow with fictional sample content, not an application screenshot.</desc><g font-family="Inter, Segoe UI, Arial, sans-serif"><rect x="0" y="0" width="1200" height="760" rx="0" fill="#edf2eb" stroke="none"/><text x="48" y="57" font-size="16" fill="#306b54" font-weight="700">S C R I B E C A T</text><text x="48" y="108" font-size="36" fill="#193b30" font-weight="700">Keep the whole picture in view.</text><text x="48" y="144" font-size="18" fill="#384944" font-weight="400">Reference PDFs, right where you write. One page or a centered overview.</text><text x="48" y="733" font-size="11" fill="#62786b" font-weight="600">WORKFLOW ILLUSTRATION  •  FICTIONAL EXAMPLE CONTENT</text><rect x="48" y="181" width="1104" height="515" rx="16" fill="#fff" stroke="none"/><text x="76" y="220" font-size="16" fill="#264a39" font-weight="600">Research notes / Reference deck.pdf</text><path d="M48 240 L1152 240" stroke="#dce5df" stroke-width="1"/><rect x="72" y="254" width="1056" height="415" rx="9" fill="#e8ede8" stroke="none"/><text x="92" y="283" font-size="14" fill="#384944" font-weight="400">Reference deck.pdf</text><rect x="864" y="262" width="242" height="30" rx="6" fill="#fff" stroke="none"/><text x="879" y="283" font-size="13" fill="#384944" font-weight="400">Single page     |     Overview</text><rect x="160" y="309" width="264" height="147" rx="3" fill="#fff" stroke="none"/><rect x="160" y="309" width="264" height="7" rx="0" fill="#7caa8b" stroke="none"/><text x="177" y="345" font-size="13" fill="#669078" font-weight="600">01</text><text x="177" y="372" font-size="18" fill="#264a39" font-weight="600">The opportunity</text><rect x="177" y="390" width="206" height="4" rx="2" fill="#e0e8df" stroke="none"/><rect x="177" y="402" width="180" height="4" rx="2" fill="#e0e8df" stroke="none"/><rect x="177" y="414" width="194" height="4" rx="2" fill="#e0e8df" stroke="none"/><text x="285" y="447" font-size="10" fill="#839384" font-weight="400">1</text><rect x="468" y="309" width="264" height="147" rx="3" fill="#fff" stroke="none"/><rect x="468" y="309" width="264" height="7" rx="0" fill="#7caa8b" stroke="none"/><text x="485" y="345" font-size="13" fill="#669078" font-weight="600">02</text><text x="485" y="372" font-size="18" fill="#264a39" font-weight="600">What we learned</text><rect x="485" y="390" width="206" height="4" rx="2" fill="#e0e8df" stroke="none"/><rect x="485" y="402" width="180" height="4" rx="2" fill="#e0e8df" stroke="none"/><rect x="485" y="414" width="194" height="4" rx="2" fill="#e0e8df" stroke="none"/><text x="593" y="447" font-size="10" fill="#839384" font-weight="400">2</text><rect x="776" y="309" width="264" height="147" rx="3" fill="#fff" stroke="none"/><rect x="776" y="309" width="264" height="7" rx="0" fill="#7caa8b" stroke="none"/><text x="793" y="345" font-size="13" fill="#669078" font-weight="600">03</text><text x="793" y="372" font-size="18" fill="#264a39" font-weight="600">A clearer direction</text><rect x="793" y="390" width="206" height="4" rx="2" fill="#e0e8df" stroke="none"/><rect x="793" y="402" width="180" height="4" rx="2" fill="#e0e8df" stroke="none"/><rect x="793" y="414" width="194" height="4" rx="2" fill="#e0e8df" stroke="none"/><text x="901" y="447" font-size="10" fill="#839384" font-weight="400">3</text><rect x="160" y="482" width="264" height="147" rx="3" fill="#fff" stroke="none"/><rect x="160" y="482" width="264" height="7" rx="0" fill="#7caa8b" stroke="none"/><text x="177" y="518" font-size="13" fill="#669078" font-weight="600">04</text><text x="177" y="545" font-size="18" fill="#264a39" font-weight="600">Small steps</text><rect x="177" y="563" width="206" height="4" rx="2" fill="#e0e8df" stroke="none"/><rect x="177" y="575" width="180" height="4" rx="2" fill="#e0e8df" stroke="none"/><rect x="177" y="587" width="194" height="4" rx="2" fill="#e0e8df" stroke="none"/><text x="285" y="620" font-size="10" fill="#839384" font-weight="400">4</text><rect x="468" y="482" width="264" height="147" rx="3" fill="#fff" stroke="none"/><rect x="468" y="482" width="264" height="7" rx="0" fill="#7caa8b" stroke="none"/><text x="485" y="518" font-size="13" fill="#669078" font-weight="600">05</text><text x="485" y="545" font-size="18" fill="#264a39" font-weight="600">The bigger picture</text><rect x="485" y="563" width="206" height="4" rx="2" fill="#e0e8df" stroke="none"/><rect x="485" y="575" width="180" height="4" rx="2" fill="#e0e8df" stroke="none"/><rect x="485" y="587" width="194" height="4" rx="2" fill="#e0e8df" stroke="none"/><text x="593" y="620" font-size="10" fill="#839384" font-weight="400">5</text><rect x="776" y="482" width="264" height="147" rx="3" fill="#fff" stroke="none"/><rect x="776" y="482" width="264" height="7" rx="0" fill="#7caa8b" stroke="none"/><text x="793" y="518" font-size="13" fill="#669078" font-weight="600">06</text><text x="793" y="545" font-size="18" fill="#264a39" font-weight="600">Next chapter</text><rect x="793" y="563" width="206" height="4" rx="2" fill="#e0e8df" stroke="none"/><rect x="793" y="575" width="180" height="4" rx="2" fill="#e0e8df" stroke="none"/><rect x="793" y="587" width="194" height="4" rx="2" fill="#e0e8df" stroke="none"/><text x="901" y="620" font-size="10" fill="#839384" font-weight="400">6</text></g></svg>